HIERARCHY
ROOT Hips
{
	OFFSET 52.799099 -12.988715 94.083702
	CHANNELS 6 Xposition Yposition Zposition Xrotation Yrotation Zrotation
	JOINT spine
	{
		OFFSET 0.000000 -0.448574 7.800591
		CHANNELS 3 Xrotation Yrotation Zrotation
		JOINT spine1
		{
			OFFSET 0.000000 -0.000002 10.136398
			CHANNELS 3 Xrotation Yrotation Zrotation
			JOINT spine2
			{
				OFFSET 0.000000 -0.000002 9.712509
				CHANNELS 3 Xrotation Yrotation Zrotation
				JOINT Neck
				{
					OFFSET 0.000000 -1.188873 24.936096
					CHANNELS 3 Xrotation Yrotation Zrotation
					JOINT Head
					{
						OFFSET 0.000000 -0.000001 7.533844
						CHANNELS 3 Xrotation Yrotation Zrotation
						End Site
						{
							OFFSET 0.000000 6.014017 18.236099
						}
					}
				}
				JOINT RightShoulder
				{
					OFFSET -4.089649 0.569455 10.488800
					CHANNELS 3 Xrotation Yrotation Zrotation
					JOINT RightArm
					{
						OFFSET 0.000000 -0.000002 13.757004
						CHANNELS 3 Xrotation Yrotation Zrotation
						JOINT RightArmRoll
						{
							OFFSET 0.000000 -0.000001 6.944778
							CHANNELS 3 Xrotation Yrotation Zrotation
							JOINT RightForeArm
							{
								OFFSET 0.000000 -0.000004 20.227707
								CHANNELS 3 Xrotation Yrotation Zrotation
								JOINT RightForeArmRoll
								{
									OFFSET 0.000000 -0.000001 7.793121
									CHANNELS 3 Xrotation Yrotation Zrotation
									JOINT RightHand
									{
										OFFSET 0.000000 -0.000003 15.639099
										CHANNELS 3 Xrotation Yrotation Zrotation
										End Site
										{
											OFFSET 0.000000 0.000000 0.100006
										}
									}
								}
							}
						}
					}
				}
				JOINT LeftShoulder
				{
					OFFSET 4.089649 0.569455 10.488800
					CHANNELS 3 Xrotation Yrotation Zrotation
					JOINT LeftArm
					{
						OFFSET 0.000000 -0.000002 13.757004
						CHANNELS 3 Xrotation Yrotation Zrotation
						JOINT LeftArmRoll
						{
							OFFSET 0.000000 -0.000001 6.944778
							CHANNELS 3 Xrotation Yrotation Zrotation
							JOINT LeftForeArm
							{
								OFFSET 0.000000 -0.000004 20.227707
								CHANNELS 3 Xrotation Yrotation Zrotation
								JOINT LeftForeArmRoll
								{
									OFFSET 0.000000 -0.000001 7.793121
									CHANNELS 3 Xrotation Yrotation Zrotation
									JOINT LeftHand
									{
										OFFSET 0.000000 -0.000003 15.639099
										CHANNELS 3 Xrotation Yrotation Zrotation
										End Site
										{
											OFFSET 0.000000 0.000000 0.100006
										}
									}
								}
							}
						}
					}
				}
			}
		}
	}
	JOINT RightUpLeg
	{
		OFFSET -6.914158 1.063581 -1.267883
		CHANNELS 3 Xrotation Yrotation Zrotation
		JOINT RightUpLegRoll
		{
			OFFSET 0.000000 -0.000003 18.337799
			CHANNELS 3 Xrotation Yrotation Zrotation
			JOINT RightLeg
			{
				OFFSET 0.000000 0.000004 -22.708504
				CHANNELS 3 Xrotation Yrotation Zrotation
				JOINT RightLegRoll
				{
					OFFSET 0.000000 -0.000004 22.782799
					CHANNELS 3 Xrotation Yrotation Zrotation
					JOINT RightFoot
					{
						OFFSET 0.000000 -0.000003 18.962898
						CHANNELS 3 Xrotation Yrotation Zrotation
						JOINT RightToeBase
						{
							OFFSET 0.000000 -0.000003 15.852005
							CHANNELS 3 Xrotation Yrotation Zrotation
							End Site
							{
								OFFSET 0.006718 0.884891 7.677017
							}
						}
					}
				}
			}
		}
	}
	JOINT LeftUpLeg
	{
		OFFSET 6.914158 1.063581 -1.267883
		CHANNELS 3 Xrotation Yrotation Zrotation
		JOINT LeftUpLegRoll
		{
			OFFSET 0.000000 -0.000003 18.337898
			CHANNELS 3 Xrotation Yrotation Zrotation
			JOINT LeftLeg
			{
				OFFSET 0.000000 -0.000004 22.708405
				CHANNELS 3 Xrotation Yrotation Zrotation
				JOINT LeftLegRoll
				{
					OFFSET 0.000000 -0.000004 22.993408
					CHANNELS 3 Xrotation Yrotation Zrotation
					JOINT LeftFoot
					{
						OFFSET 0.000000 -0.000003 18.752197
						CHANNELS 3 Xrotation Yrotation Zrotation
						JOINT LeftToeBase
						{
							OFFSET 0.000000 -0.000003 15.852005
							CHANNELS 3 Xrotation Yrotation Zrotation
							End Site
							{
								OFFSET -0.030113 0.884892 7.677017
							}
						}
					}
				}
			}
		}
	}
}
MOTION
Frames: 12
Frame Time: 0.041667
53.968403 -12.340611 94.153305 -3.404737 0.116468 -0.287800 -1.490263 -0.142658 0.385415 1.023395 -0.307380 0.778256 2.668396 -0.297973 0.781765 22.046268 7.488676 3.087252 -13.569033 -3.107806 3.272682 -28.025304 -81.270864 -31.878658 85.315702 -78.113431 105.743711 0.000000 0.000003 0.000009 19.744979 -7.460038 -0.072663 0.000000 0.000001 -2.999999 -5.000307 -7.999051 0.000141 -2.027275 66.084000 3.177781 -5.886608 107.491653 -5.121894 0.000001 0.000018 0.000001 22.185532 5.852340 0.247118 -0.000003 -0.000003 3.007561 -5.000379 7.999259 -0.000110 -0.229804 -175.136036 1.186424 -179.999991 0.000005 -0.884996 172.251538 -1.307950 -0.715948 0.000003 -0.000003 -0.093411 68.023616 5.395383 5.959348 25.456959 -7.355615 0.000002 1.098757 -179.931020 6.652253 -0.000005 -0.000004 -1.376920 -10.606463 4.940637 0.658864 0.000000 -0.000002 -0.210485 73.163012 -7.494710 -0.096844 25.456950 7.355614 -0.000001 
53.970905 -12.339613 94.148506 -3.402899 0.117971 -0.283805 -1.491183 -0.142658 0.385382 1.021554 -0.306469 0.778408 2.666555 -0.297065 0.781914 22.022007 7.492075 3.085314 -13.543234 -3.110945 3.269735 -28.017397 -81.265741 -31.870674 85.432853 -78.166693 105.801112 0.000001 0.000003 0.000009 19.835351 -7.490074 -0.063090 0.000003 0.000001 -2.999999 -5.000305 -7.999050 0.000142 -2.061944 66.079444 3.216533 -5.832389 107.538269 -5.222774 0.000000 0.000018 -0.000000 22.189871 5.811637 0.252050 0.000001 -0.000003 3.007561 -5.000380 7.999260 -0.000111 -0.235829 -175.142047 1.178898 -179.999991 0.000005 -0.884996 172.239653 -1.301971 -0.716421 0.000003 -0.000003 -0.093414 68.032386 5.394496 5.961948 25.456959 -7.355616 0.000001 1.091996 -179.934012 6.648037 -0.000005 -0.000004 -1.376919 -10.615117 4.941924 0.659462 0.000001 -0.000002 -0.210442 73.167001 -7.495033 -0.093525 25.456948 7.355613 -0.000001 
53.968204 -12.341514 94.147903 -3.401647 0.119561 -0.280063 -1.491995 -0.142660 0.385384 1.019925 -0.305533 0.778662 2.664926 -0.296129 0.782165 21.997707 7.494831 3.083618 -13.517231 -3.113752 3.266983 -28.012344 -81.261534 -31.865602 85.542812 -78.218971 105.851690 0.000001 0.000003 0.000008 19.922928 -7.520301 -0.053450 -0.000000 0.000001 -3.000000 -5.000305 -7.999051 0.000137 -2.097339 66.074369 3.256061 -5.778399 107.585895 -5.322844 0.000000 0.000018 0.000000 22.194532 5.771119 0.256961 -0.000002 -0.000003 3.007560 -5.000377 7.999260 -0.000111 -0.241145 -175.149054 1.171367 -179.999991 0.000005 -0.884996 172.227769 -1.295004 -0.716742 0.000003 -0.000003 -0.093419 68.041170 5.393716 5.964367 25.456959 -7.355617 0.000001 1.086096 -179.937017 6.643662 -0.000005 -0.000004 -1.376920 -10.623571 4.943212 0.660060 -0.000000 -0.000002 -0.210379 73.170983 -7.495357 -0.090107 25.456947 7.355613 -0.000001 
53.969204 -12.330914 94.152504 -3.400819 0.121212 -0.276498 -1.492745 -0.142665 0.385409 1.018425 -0.304578 0.778988 2.663435 -0.295175 0.782488 21.973492 7.497146 3.082069 -13.491119 -3.116340 3.264373 -28.008615 -81.257770 -31.861921 85.647772 -78.270505 105.897309 -0.000000 0.000003 0.000008 20.008600 -7.550638 -0.043740 0.000003 0.000002 -2.999999 -5.000306 -7.999051 0.000138 -2.133233 66.068877 3.296104 -5.724890 107.633543 -5.422031 0.000000 0.000018 0.000001 22.199310 5.730730 0.261852 -0.000001 -0.000004 3.007560 -5.000379 7.999258 -0.000111 -0.245962 -175.155038 1.163845 -179.999991 0.000006 -0.884996 172.215871 -1.289012 -0.717194 0.000003 -0.000003 -0.093426 68.050158 5.392892 5.966969 25.456957 -7.355618 0.000002 1.080786 -179.941006 6.639172 -0.000005 -0.000004 -1.376910 -10.631923 4.944512 0.660665 -0.000001 -0.000002 -0.210300 73.175157 -7.495598 -0.086664 25.456955 7.355613 -0.000001 
53.966305 -12.333113 94.149597 -3.400217 0.122900 -0.273034 -1.493442 -0.142672 0.385447 1.017014 -0.303612 0.779356 2.662025 -0.294210 0.782853 21.949160 7.499218 3.080625 -13.464915 -3.118790 3.261854 -28.005765 -81.254280 -31.859117 85.750464 -78.321547 105.940858 -0.000000 0.000003 0.000009 20.093197 -7.581047 -0.033948 0.000001 0.000001 -2.999998 -5.000304 -7.999051 0.000141 -2.169412 66.063270 3.336454 -5.671457 107.682201 -5.521050 0.000000 0.000017 -0.000000 22.204206 5.690413 0.266730 -0.000000 -0.000003 3.007560 -5.000378 7.999259 -0.000110 -0.250494 -175.161035 1.156328 -179.999991 0.000005 -0.884996 172.204041 -1.282045 -0.717509 0.000003 -0.000003 -0.093433 68.059154 5.392102 5.969374 25.456960 -7.355615 0.000002 1.075827 -179.944011 6.634652 -0.000005 -0.000004 -1.376910 -10.640176 4.945815 0.661268 0.000001 -0.000002 -0.210215 73.179323 -7.495841 -0.083219 25.456948 7.355613 -0.000001 
53.967304 -12.351112 94.145096 -3.399668 0.124595 -0.269594 -1.494146 -0.142679 0.385488 1.015624 -0.302645 0.779733 2.660635 -0.293242 0.783227 21.924824 7.501230 3.079205 -13.438605 -3.121224 3.259355 -28.003453 -81.250967 -31.856897 85.852158 -78.372528 105.983472 -0.000001 0.000003 0.000010 20.177506 -7.611461 -0.024070 0.000001 0.000001 -3.000000 -5.000305 -7.999051 0.000139 -2.205635 66.057451 3.376860 -5.618616 107.729883 -5.619256 0.000001 0.000018 -0.000001 22.209207 5.650113 0.271610 -0.000000 -0.000004 3.007560 -5.000377 7.999259 -0.000112 -0.254959 -175.168042 1.148813 -179.999991 0.000005 -0.884996 172.192156 -1.275067 -0.717820 0.000003 -0.000003 -0.093441 68.068245 5.391292 5.971873 25.456962 -7.355616 0.000002 1.070944 -179.948014 6.630082 -0.000005 -0.000004 -1.376910 -10.648430 4.947117 0.661873 0.000000 -0.000002 -0.210125 73.183489 -7.496082 -0.079877 25.456950 7.355613 -0.000001 
53.967903 -12.347915 94.145111 -3.399007 0.126274 -0.266105 -1.494853 -0.142684 0.385523 1.014194 -0.301681 0.780089 2.659204 -0.292280 0.783581 21.900593 7.503366 3.077730 -13.412398 -3.123725 3.256820 -28.000369 -81.247388 -31.853861 85.956141 -78.423788 106.028250 0.000001 0.000003 0.000011 20.262342 -7.641834 -0.014093 0.000001 0.000001 -2.999999 -5.000306 -7.999051 0.000139 -2.241704 66.051829 3.417094 -5.565747 107.778575 -5.717691 0.000000 0.000018 0.000001 22.214123 5.609777 0.276514 -0.000003 -0.000003 3.007561 -5.000377 7.999259 -0.000110 -0.259561 -175.174053 1.141292 -179.999991 0.000006 -0.884996 172.180285 -1.268101 -0.718144 0.000003 -0.000003 -0.093448 68.077240 5.390503 5.974380 25.456957 -7.355616 0.000001 1.065896 -179.951019 6.625573 -0.000005 -0.000004 -1.376910 -10.656782 4.948418 0.662483 -0.000001 -0.000002 -0.210040 73.187587 -7.496390 -0.076348 25.456948 7.355613 -0.000001 
53.966103 -12.322610 94.146103 -3.398059 0.127909 -0.262489 -1.495622 -0.142689 0.385541 1.012654 -0.300731 0.780396 2.657664 -0.291330 0.783884 21.876283 7.505821 3.076163 -13.386293 -3.126387 3.254180 -27.996397 -81.243529 -31.849927 86.064304 -78.475458 106.077086 -0.000001 0.000002 0.000010 20.348602 -7.672087 -0.004021 0.000001 0.000001 -2.999999 -5.000306 -7.999051 0.000142 -2.277386 66.046406 3.456914 -5.513336 107.826284 -5.815941 0.000000 0.000018 -0.000001 22.218940 5.569352 0.281432 -0.000001 -0.000004 3.007560 -5.000377 7.999260 -0.000112 -0.264519 -175.181047 1.133777 -179.999991 0.000005 -0.884996 172.168414 -1.262124 -0.718587 0.000003 -0.000003 -0.093454 68.086126 5.389696 5.976891 25.456959 -7.355618 0.000001 1.060417 -179.955008 6.621112 -0.000005 -0.000004 -1.376900 -10.665135 4.949718 0.663087 -0.000001 -0.000002 -0.209966 73.191658 -7.496670 -0.072919 25.456950 7.355613 -0.000001 
53.962006 -12.328011 94.144302 -3.396629 0.129474 -0.258672 -1.496464 -0.142690 0.385533 1.010964 -0.299803 0.780620 2.655974 -0.290404 0.784105 21.852000 7.508796 3.074406 -13.360393 -3.129311 3.251399 -27.990505 -81.239049 -31.844008 86.179126 -78.528065 106.132370 -0.000001 0.000003 0.000010 20.437202 -7.702166 0.006191 0.000004 0.000001 -3.000000 -5.000306 -7.999051 0.000140 -2.312478 66.041482 3.496112 -5.461002 107.874007 -5.914391 0.000000 0.000018 -0.000000 22.223566 5.528785 0.286392 -0.000001 -0.000003 3.007560 -5.000379 7.999259 -0.000111 -0.270049 -175.187058 1.126251 -179.999991 0.000005 -0.884996 172.156544 -1.255146 -0.718890 0.000003 -0.000003 -0.093459 68.095012 5.388851 5.979393 25.456959 -7.355617 0.000001 1.054257 -179.957999 6.616793 -0.000005 -0.000004 -1.376900 -10.673689 4.951004 0.663690 -0.000000 -0.000002 -0.209909 73.195736 -7.496948 -0.069487 25.456948 7.355613 -0.000001 
53.960606 -12.356812 94.140297 -3.394561 0.130943 -0.254577 -1.497423 -0.142688 0.385487 1.009044 -0.298903 0.780731 2.654054 -0.289506 0.784213 21.827750 7.512458 3.072414 -13.334689 -3.132603 3.248402 -27.981842 -81.233653 -31.835225 86.303060 -78.581825 106.196519 -0.000001 0.000002 0.000009 20.528740 -7.732026 0.016516 0.000000 0.000001 -2.999998 -5.000303 -7.999051 0.000141 -2.346743 66.037069 3.534440 -5.409006 107.920732 -6.013167 -0.000000 0.000018 0.000000 22.227787 5.488021 0.291403 0.000001 -0.000003 3.007559 -5.000376 7.999259 -0.000109 -0.276356 -175.193054 1.118731 -179.999991 0.000005 -0.884996 172.144659 -1.249170 -0.719328 0.000003 -0.000002 -0.093461 68.103686 5.388014 5.981906 25.456955 -7.355617 0.000001 1.047148 -179.961005 6.612643 -0.000005 -0.000004 -1.376900 -10.682345 4.952290 0.664286 0.000000 -0.000002 -0.209874 73.199615 -7.497275 -0.066176 25.456952 7.355613 -0.000001 
53.961304 -12.350413 94.140007 -3.391669 0.132289 -0.250130 -1.498522 -0.142681 0.385395 1.006833 -0.298038 0.780699 2.651844 -0.288648 0.784179 21.803448 7.517024 3.070114 -13.309296 -3.136348 3.245143 -27.970157 -81.227273 -31.823327 86.438694 -78.636972 106.271965 -0.000000 0.000003 0.000011 20.624226 -7.761590 0.026996 0.000005 0.000000 -3.000000 -5.000304 -7.999051 0.000141 -2.379985 66.033449 3.571675 -5.356922 107.967464 -6.112707 0.000000 0.000018 -0.000001 22.231711 5.446993 0.296474 0.000001 -0.000003 3.007559 -5.000374 7.999260 -0.000111 -0.283662 -175.199051 1.111198 -179.999991 0.000005 -0.884996 172.132720 -1.242205 -0.719628 0.000003 -0.000003 -0.093462 68.112149 5.387147 5.984525 25.456959 -7.355617 0.000001 1.038856 -179.964010 6.608693 -0.000004 -0.000004 -1.376900 -10.691299 4.953558 0.664881 0.000000 -0.000002 -0.209869 73.203399 -7.497642 -0.062875 25.456953 7.355613 -0.000001 
53.968304 -12.335014 94.140999 -3.387788 0.133487 -0.245253 -1.499802 -0.142667 0.385245 1.004283 -0.297220 0.780493 2.649293 -0.287835 0.783970 21.779305 7.522661 3.067430 -13.284221 -3.140651 3.241547 -27.954342 -81.219528 -31.807166 86.588637 -78.693908 106.361181 0.000002 0.000003 0.000009 20.724466 -7.790813 0.037637 0.000002 0.000002 -2.999998 -5.000306 -7.999052 0.000139 -2.411972 66.030649 3.607584 -5.304967 108.013199 -6.212968 0.000000 0.000018 -0.000001 22.235133 5.405673 0.301597 -0.000001 -0.000003 3.007560 -5.000377 7.999258 -0.000111 -0.292172 -175.205048 1.103666 -179.999991 0.000006 -0.884996 172.120794 -1.236215 -0.720074 0.000003 -0.000003 -0.093460 68.120386 5.386210 5.987142 25.456957 -7.355615 0.000001 1.029098 -179.967002 6.604994 -0.000005 -0.000004 -1.376900 -10.700456 4.954816 0.665461 -0.000000 -0.000002 -0.209899 73.206992 -7.498059 -0.059698 25.456952 7.355614 -0.000001 
